<svg width="20" height="20" version="1.1" viewBox="0 0 20 20" xmlns="http://www.w3.org/2000/svg" fill="none">
    <path d="m12.455 1a4.4544 4.488 0 0 0-4.4551 4.4883 4.4544 4.488 0 0 0 4.4551 4.4883 4.4544 4.488 0 0 0 2.6172-0.86914l2.9922 2.9102s0.49873 0.52268 1.0078 0.009766c0.50908-0.51292-0.009766-1.0156-0.009766-1.0156l-2.998-2.9141a4.4544 4.488 0 0 0 0.84375-2.6094 4.4544 4.488 0 0 0-4.4531-4.4883zm0 1.2832a3.1818 3.2058 0 0 1 3.1816 3.2051 3.1818 3.2058 0 0 1-3.1816 3.2051 3.1818 3.2058 0 0 1-3.1816-3.2051 3.1818 3.2058 0 0 1 3.1816-3.2051zm-6.2617 0.080078c-2.4001 0.17465-5.1934 0.76786-5.1934 2.4961v11.527c0 1.9397 3.9773 2.5821 7 2.5781 3.0227-0.004104 7-0.641 7-2.5645v-4.3613a7 7.0526 0 0 1-1.2734 0.36914v0.017578c0 0.64114-2.5448 1.4102-5.7266 1.4102s-5.7266-0.76904-5.7266-1.4102v-2.1875s1.272 1.0332 5.7266 1.0332c0.16234 0 0.30915-0.005212 0.46289-0.007812a7 7.0526 0 0 1-1.4043-1.3008c-2.7262-0.13168-4.7852-0.80852-4.7852-1.3848v-2.1855s0.82227 0.65999 3.4297 0.92383a7 7.0526 0 0 1-0.21094-1.3008c-1.9001-0.19429-3.2188-0.6068-3.2188-1.1562 0-0.56925 1.4156-0.99496 3.4277-1.1797a7 7.0526 0 0 1 0.49219-1.3164zm-3.9199 11.727s1.272 1.0332 5.7266 1.0332c4.4545 0 5.7266-1.0332 5.7266-1.0332v2.1816c0 0.64114-2.5448 1.4102-5.7266 1.4102s-5.7266-0.76904-5.7266-1.4102v-2.1816z" fill="#CED0D6"/>
</svg>
